<?xml version="1.0" encoding="utf-8"?>
<!-- Generator: Adobe Illustrator 24.3.0, SVG Export Plug-In . SVG Version: 6.00 Build 0)  -->
<svg version="1.1" id="Layer_1" xmlns="http://www.w3.org/2000/svg" xmlns:xlink="http://www.w3.org/1999/xlink" x="0px" y="0px"
	 viewBox="0 0 250 100" style="enable-background:new 0 0 250 100;" xml:space="preserve">
<style type="text/css">
	.st0{fill:#FFFFFF;}
	.st1{fill:#231F20;}
	.st2{fill:#231F20;stroke:#FFFFFF;stroke-width:0.25;stroke-miterlimit:10;}
</style>
<g>
	<path class="st0" d="M55.8,26.4h31.6c1.5,0,2.8,0.3,3.8,0.9s1.8,1.4,2.4,2.4c0.6,1,1,2.1,1.2,3.4c0.2,1.3,0.3,2.6,0.3,4v0.1
		c0,0.8-0.2,1.7-0.5,2.5c-0.3,0.8-0.7,1.6-1.2,2.3c-0.5,0.7-1,1.4-1.6,2s-1.2,1.1-1.7,1.5c0.4,0.5,0.7,1.1,1,1.7
		c0.3,0.6,0.4,1.3,0.5,2.1c0,0.8-0.1,1.5-0.3,2.1c-0.2,0.7-0.5,1.3-0.7,1.9v-0.1l-0.3,0.8c-0.8,1.6-1.5,3-2.3,4.2
		c-0.8,1.2-1.8,2.1-3,2.9s-2.6,1.3-4.3,1.6c-1.7,0.3-3.8,0.5-6.3,0.5H42.1L55.8,26.4z M75.8,50.2c0.1,0,0.1-0.1,0.1-0.1H62.2l-1,2.5
		h12.3c0.9-0.5,1.4-0.9,1.7-1l0.5-0.9L75.8,50.2z M66.7,37.4l-2.2,5.8l3.9-3.4h11.1c0.3-0.7,0.5-1.2,0.6-1.5v-0.1l0.1,0.1
		c-0.1-0.1-0.2-0.4-0.3-0.8H66.7z"/>
	<path class="st0" d="M103.4,26.4h14.8l-9.6,26.2h19.7c0.1,0,0,0.5-0.5,1.4c-0.5,0.9-1.1,2-1.9,3.2c-0.8,1.2-1.6,2.4-2.6,3.6
		c-0.9,1.2-1.8,2.1-2.5,2.7H89.9L103.4,26.4z"/>
	<path class="st0" d="M177.4,63.5h-14.1l-1.1-5.9c-0.4,0.6-0.9,1.2-1.4,1.8c-0.5,0.7-1.1,1.3-1.6,1.8s-1,1-1.5,1.5s-0.8,0.7-1,0.8
		h-30l24.8-32.8l-0.1,0.1c0.1-0.3,0.4-0.7,0.9-1.1c0.5-0.5,1-1,1.5-1.5s1.1-0.9,1.7-1.3s1-0.6,1.4-0.6h11.3c0.7,0,1.3,0.3,1.8,0.8
		c0.5,0.5,0.9,1.2,1.2,1.9c0.4,0.8,0.6,1.5,0.9,2.4c0.2,0.8,0.4,1.5,0.6,2.1L177.4,63.5z M150.8,52.7h10.9l-1.8-12L150.8,52.7z"/>
	<path class="st0" d="M178.7,46.3c0-2.2,0.5-4.5,1.5-6.9s2.3-4.5,4-6.4c1.7-1.9,3.6-3.5,5.9-4.7c2.2-1.2,4.6-1.8,7.1-1.8h29.7
		c-1.7,2.2-3.4,4.2-5,6s-3.2,3.5-5,4.9h-17.7c-0.5,0-1,0.2-1.6,0.5c-0.5,0.3-1.1,0.8-1.6,1.4s-1,1.2-1.4,1.8c-0.4,0.7-0.8,1.4-1,2.1
		v-0.1c-0.1,0.5-0.3,1-0.4,1.4c-0.1,0.4-0.1,0.8-0.1,1.1c0,0.8,0.2,1.5,0.6,2.3s0.9,1.6,1.5,2.3c0.6,0.7,1.3,1.3,2,1.8
		s1.4,0.7,2.1,0.7h17.9c-1.3,1.9-2.7,3.8-4.3,5.8c-1.6,1.9-3.3,3.7-5.3,5.2h-5.7c-2.9,0-5.7-0.3-8.5-0.8c-2.8-0.5-5.2-1.4-7.4-2.7
		s-3.9-3-5.3-5.2s-2-5-2-8.4L178.7,46.3L178.7,46.3z"/>
	<path class="st0" d="M216.7,60c0-0.8,0.1-1.4,0.4-1.8c0.6-1.3,1.5-2.3,2.7-3.2s2.6-1.3,4.1-1.3c1.4,0,2.4,0.3,3.1,1
		c0.7,0.7,1.1,1.5,1.1,2.6c0,0.8-0.3,1.7-0.8,2.6c-0.5,0.9-1.3,1.7-2.2,2.4c-1.3,0.9-2.6,1.3-4.1,1.3c-1.4,0-2.4-0.3-3.1-1
		C217.1,61.9,216.7,61,216.7,60z"/>
</g>
<g id="XMLID_1_">
	<g>
		<path class="st1" d="M90.7,29.5c-17.7,3.4-35.5,21.6-45.2,34h-3.5l1.1-2.9C43.9,59,69.1,30.8,90.7,29.5z"/>
	</g>
	<g>
		<path class="st2" d="M90.7,29.5C69.1,30.8,43.9,59,43.2,60.7l-1.1,2.9h3.5C55.2,51.2,73.1,32.9,90.7,29.5z"/>
	</g>
</g>
</svg>
